<?xml version="1.0" standalone="no"?>
<svg viewBox="0 0 200 200" xmlns="http://www.w3.org/2000/svg">
  <path fill="#00DDFF" d="M43.2,-74.7C56.1,-67.4,66.7,-56,72.2,-42.9C77.7,-29.7,78.1,-14.9,79.1,0.5C80,16,81.4,31.9,74.9,43.3C68.4,54.6,53.9,61.4,40.1,70.1C26.3,78.7,13.1,89.3,-1.7,92.2C-16.5,95.1,-33,90.4,-44.5,80.4C-56.1,70.5,-62.8,55.3,-67.4,41C-72.1,26.7,-74.7,13.4,-76.6,-1.1C-78.4,-15.5,-79.5,-31,-73.1,-42.4C-66.8,-53.7,-53.1,-61,-39.7,-68C-26.3,-75.1,-13.1,-81.9,1,-83.7C15.2,-85.4,30.3,-82.1,43.2,-74.7Z" transform="translate(100 100)" />
</svg>
